<?xml version="1.0" encoding="UTF-8" standalone="no"?>
<!-- Created with Inkscape (http://www.inkscape.org/) -->

<svg
   xmlns:dc="http://purl.org/dc/elements/1.1/"
   xmlns:cc="http://creativecommons.org/ns#"
   xmlns:rdf="http://www.w3.org/1999/02/22-rdf-syntax-ns#"
   xmlns:svg="http://www.w3.org/2000/svg"
   xmlns="http://www.w3.org/2000/svg"
   xmlns:sodipodi="http://sodipodi.sourceforge.net/DTD/sodipodi-0.dtd"
   xmlns:inkscape="http://www.inkscape.org/namespaces/inkscape"
   width="772.83856"
   height="709.98145"
   id="svg2"
   version="1.1"
   inkscape:version="0.47 r22583"
   sodipodi:docname="crash.svg">
  <defs
     id="defs4">
    <inkscape:perspective
       sodipodi:type="inkscape:persp3d"
       inkscape:vp_x="0 : 526.18109 : 1"
       inkscape:vp_y="0 : 1000 : 0"
       inkscape:vp_z="744.09448 : 526.18109 : 1"
       inkscape:persp3d-origin="372.04724 : 350.78739 : 1"
       id="perspective10" />
  </defs>
  <sodipodi:namedview
     id="base"
     pagecolor="#ffffff"
     bordercolor="#666666"
     borderopacity="1.0"
     inkscape:pageopacity="0.0"
     inkscape:pageshadow="2"
     inkscape:zoom="1.4"
     inkscape:cx="464.19296"
     inkscape:cy="434.96198"
     inkscape:document-units="px"
     inkscape:current-layer="layer1"
     showgrid="false"
     inkscape:window-width="1920"
     inkscape:window-height="1005"
     inkscape:window-x="0"
     inkscape:window-y="24"
     inkscape:window-maximized="1" />
  <metadata
     id="metadata7">
    <rdf:RDF>
      <cc:Work
         rdf:about="">
        <dc:format>image/svg+xml</dc:format>
        <dc:type
           rdf:resource="http://purl.org/dc/dcmitype/StillImage" />
        <dc:title></dc:title>
      </cc:Work>
    </rdf:RDF>
  </metadata>
  <g
     inkscape:label="Capa 1"
     inkscape:groupmode="layer"
     id="layer1"
     transform="translate(-18.580688,-233.08571)">
    <path
       transform="matrix(0.80403723,0,0,0.80403723,136.23026,145.31318)"
       style="fill:#d40000;fill-rule:evenodd;stroke:#000000;stroke-width:12.43723488;stroke-linecap:butt;stroke-linejoin:miter;stroke-miterlimit:8.80000019;stroke-opacity:1;stroke-dasharray:none"
       d="M 710.95927,880.08328 430.04838,746.06121 389.59796,985.96676 175.32732,767.09001 -101.73786,918.47538 51.828446,623.35051 -140.10492,568.6861 39.683386,441.47611 -138.35321,251.47158 139.00419,321.53073 232.75703,115.38338 375.95776,291.61819 706.32538,154.4468 554.53582,399.82273 808.65536,493.57558 561.35063,594.13435 710.95927,880.08328 z"
       id="path2816"
       sodipodi:nodetypes="ccccccccccccccccc" />
    <path
       sodipodi:nodetypes="ccccccccccccccccc"
       id="path3591"
       d="M 624.93398,767.3769 458.37639,696.96928 421.54681,846.38801 316.41495,708.68907 153.42923,785.91648 247.58642,628.58 132.04645,588.11437 240.81772,527.21754 141.59415,421.32399 l 154.57715,39.04546 45.10758,-116.31886 86.95167,99.64796 188.40657,-100.73423 -90.30981,138.18177 155.91191,63.67902 -159.25674,61.75782 101.9515,160.79397 z"
       style="fill:#ffff00;fill-rule:evenodd;stroke:#000000;stroke-width:6.93153429;stroke-linecap:butt;stroke-linejoin:miter;stroke-miterlimit:8.80000019;stroke-opacity:1;stroke-dasharray:none" />
    <path
       style="fill:#ffffff;fill-rule:evenodd;stroke:#000000;stroke-width:4.15882826;stroke-linecap:butt;stroke-linejoin:miter;stroke-miterlimit:8.80000019;stroke-opacity:1;stroke-dasharray:none"
       d="m 543.52891,695.43717 -105.64662,-39.3865 -22.09726,89.64925 -63.07772,-82.61753 -97.78926,46.33542 56.49306,-94.3998 -82.17958,-31.42169 78.11845,-29.39443 -59.53282,-63.53472 92.74423,23.42676 27.06395,-69.78977 52.16984,59.78745 107.32715,-76.15349 -55.61326,80.05008 102.1165,43.92086 -96.98049,49.91101 66.88383,93.6171 z"
       id="path3593"
       sodipodi:nodetypes="ccccccccccccccccc" />
    <path
       sodipodi:type="inkscape:offset"
       inkscape:radius="7.9859571"
       inkscape:original="M 206.5 626.9375 C 201.5003 626.93753 197.54706 628.3236 194.625 631.125 C 191.70293 633.91305 190.21875 637.70139 190.21875 642.5 C 190.21875 647.28523 191.70293 651.07357 194.625 653.875 C 197.54706 656.66303 201.5003 658.0625 206.5 658.0625 C 208.17548 658.0625 209.77102 657.87531 211.3125 657.5 C 212.85393 657.12469 214.3604 656.58097 215.78125 655.84375 L 215.78125 649.625 C 214.347 650.6035 212.92524 651.32552 211.53125 651.78125 C 210.13721 652.23699 208.66644 652.46876 207.125 652.46875 C 204.36376 652.46876 202.17541 651.58183 200.59375 649.8125 C 199.01207 648.04318 198.21874 645.59633 198.21875 642.5 C 198.21874 639.39029 199.01207 636.95685 200.59375 635.1875 C 202.17541 633.4182 204.36376 632.53127 207.125 632.53125 C 208.66644 632.53127 210.13721 632.76304 211.53125 633.21875 C 212.92524 633.67451 214.347 634.39653 215.78125 635.375 L 215.78125 629.15625 C 214.3604 628.41906 212.85393 627.87534 211.3125 627.5 C 209.77102 627.12472 208.17548 626.93753 206.5 626.9375 z M 296.125 626.9375 C 292.50591 626.93753 289.74267 627.7353 287.8125 629.34375 C 285.88232 630.95226 284.90625 633.26093 284.90625 636.25 C 284.90625 638.63593 285.58814 640.5301 286.96875 641.9375 C 288.36276 643.34493 290.56 644.35662 293.5625 645 L 296.5625 645.65625 C 298.38543 646.05838 299.61555 646.52191 300.21875 647.03125 C 300.83531 647.54061 301.12498 648.28048 301.125 649.21875 C 301.12498 650.26427 300.6793 651.06204 299.78125 651.625 C 298.88317 652.18797 297.59514 652.46876 295.90625 652.46875 C 294.24414 652.46876 292.51487 652.19686 290.71875 651.6875 C 288.93601 651.16475 287.10427 650.39371 285.1875 649.375 L 285.1875 655.90625 C 287.10427 656.61666 289.02072 657.16934 290.9375 657.53125 C 292.85426 657.89316 294.75287 658.0625 296.65625 658.0625 C 300.69083 658.0625 303.668 657.26473 305.625 655.65625 C 307.59536 654.03437 308.59372 651.56079 308.59375 648.25 C 308.59372 645.73006 307.90739 643.80472 306.5 642.4375 C 305.09256 641.07031 302.71257 640.04522 299.375 639.375 L 296.0625 638.71875 C 294.49422 638.39707 293.41567 638.00485 292.8125 637.5625 C 292.22271 637.10678 291.93749 636.49176 291.9375 635.6875 C 291.93749 634.6152 292.36533 633.82188 293.25 633.3125 C 294.13465 632.80317 295.49399 632.53127 297.34375 632.53125 C 298.73775 632.53127 300.24421 632.71846 301.8125 633.09375 C 303.38075 633.46909 304.97629 634.04405 306.625 634.78125 L 306.625 628.40625 C 304.76182 627.91033 302.96125 627.5538 301.21875 627.3125 C 299.47621 627.05785 297.77367 626.93753 296.125 626.9375 z M 222.1875 627.46875 L 222.1875 657.5 L 229.9375 657.5 L 229.9375 646.125 L 232.125 646.125 C 233.38496 646.12501 234.40561 646.4192 235.15625 646.96875 C 235.92026 647.51832 236.66901 648.53001 237.40625 650.03125 L 241.0625 657.5 L 249.3125 657.5 L 245.09375 648.96875 C 244.23587 647.23965 243.40693 645.93821 242.5625 645.09375 C 241.73143 644.23591 240.77764 643.71004 239.71875 643.46875 C 241.6489 642.86559 243.07954 641.89839 244.03125 640.625 C 244.99631 639.35164 245.46872 637.73381 245.46875 635.75 C 245.46872 632.88157 244.56847 630.79577 242.71875 629.46875 C 240.88238 628.14178 237.98541 627.46878 234.03125 627.46875 L 222.1875 627.46875 z M 261.4375 627.46875 L 250.3125 657.5 L 258.09375 657.5 L 260 652.03125 L 272.09375 652.03125 L 274 657.5 L 281.78125 657.5 L 270.65625 627.46875 L 261.4375 627.46875 z M 315.40625 627.46875 L 315.40625 657.5 L 323.15625 657.5 L 323.15625 644.75 L 334.5625 644.75 L 334.5625 657.5 L 342.3125 657.5 L 342.3125 627.46875 L 334.5625 627.46875 L 334.5625 638.90625 L 323.15625 638.90625 L 323.15625 627.46875 L 315.40625 627.46875 z M 352.8125 629.25 C 351.99993 629.25003 351.41387 629.40203 351.0625 629.6875 C 350.71112 629.95106 350.5625 630.45014 350.5625 631.21875 C 350.5625 633.70038 350.59036 637.45235 350.65625 642.4375 C 350.74409 647.40072 350.78125 651.11215 350.78125 653.59375 C 350.78125 656.31693 351.27103 657.6875 352.28125 657.6875 C 353.31341 657.6875 353.84374 653.98535 353.84375 646.5625 C 353.84374 644.89347 353.90876 642.38793 354.0625 639.09375 C 354.23818 635.77765 354.34374 633.30336 354.34375 631.65625 C 354.34374 630.05312 353.8227 629.25003 352.8125 629.25 z M 229.9375 633.09375 L 233.1875 633.09375 C 234.80937 633.09377 235.99047 633.379 236.6875 633.96875 C 237.39789 634.55855 237.74998 635.53907 237.75 636.90625 C 237.74998 638.28688 237.39789 639.27184 236.6875 639.875 C 235.99047 640.4782 234.80937 640.78127 233.1875 640.78125 L 229.9375 640.78125 L 229.9375 633.09375 z M 266.0625 634.5 L 270.15625 646.4375 L 261.9375 646.4375 L 266.0625 634.5 z M 352.65625 659.4375 C 351.16289 659.4375 350.40625 660.43904 350.40625 662.4375 C 350.40625 664.17242 351.14431 665.03124 352.59375 665.03125 C 353.25258 665.03124 353.75165 664.75848 354.125 664.1875 C 354.47637 663.70435 354.65624 663.11829 354.65625 662.4375 C 354.65624 660.43904 353.99587 659.4375 352.65625 659.4375 z "
       style="font-size:41.17705536px;font-style:normal;font-variant:normal;font-weight:bold;font-stretch:normal;text-align:start;line-height:100%;writing-mode:lr-tb;text-anchor:start;fill:#ff0000;fill-opacity:1;stroke:none;font-family:Vemana2000;-inkscape-font-specification:Vemana2000 Bold"
       id="path3622"
       d="m 206.5,618.9375 c -6.46063,4e-5 -12.80781,2.04645 -17.375,6.40625 -0.0107,0.0102 -0.0206,0.0211 -0.0312,0.0312 -4.53788,4.34907 -6.875,10.69479 -6.875,17.125 0,6.43651 2.33187,12.76944 6.875,17.125 a 7.9867557,7.9867557 0 0 0 0.0312,0.0312 c 4.55913,4.35001 10.88506,6.40625 17.375,6.40625 2.27029,0 4.50836,-0.28194 6.6875,-0.8125 1.35072,-0.32888 2.69307,-0.95383 4.03125,-1.5 a 7.9867557,7.9867557 0 0 0 4.96875,1.75 l 7.75,0 a 7.9867557,7.9867557 0 0 0 5.5625,-2.28125 7.9867557,7.9867557 0 0 0 5.5625,2.28125 l 8.25,0 a 7.9867557,7.9867557 0 0 0 0.53125,-0.0312 7.9867557,7.9867557 0 0 0 0.46875,0.0312 l 7.78125,0 a 7.9867557,7.9867557 0 0 0 7.53125,-5.375 l 0.0312,-0.0937 0.78125,0 0.0312,0.0937 A 7.9867557,7.9867557 0 0 0 274,665.5 l 7.78125,0 a 7.9867557,7.9867557 0 0 0 4.0625,-1.125 c 1.20307,0.34455 2.38396,0.76568 3.625,1 2.41523,0.45603 4.81046,0.6875 7.1875,0.6875 4.54641,0 8.92614,-0.8582 12.6875,-3.375 a 7.9867557,7.9867557 0 0 0 6.0625,2.8125 l 7.75,0 a 7.9867557,7.9867557 0 0 0 5.71875,-2.4375 7.9867557,7.9867557 0 0 0 5.6875,2.4375 l 7.75,0 a 7.9867557,7.9867557 0 0 0 0.5,-0.0312 c 0.33143,1.34416 0.91879,2.74401 2.0625,4.09375 2.05977,2.43082 5.41676,3.46873 7.71875,3.46875 2.74474,-4e-5 6.33402,-1.97736 7.96875,-4.1875 l 0.0312,0.0312 c 0.0334,-0.0459 0.0299,-0.10975 0.0625,-0.15625 0.0395,-0.056 0.11945,-0.1 0.15625,-0.15625 l -0.0625,-0.0312 c 1.24614,-1.8665 1.90622,-4.11869 1.90625,-6.09375 -10e-6,-1.65587 -0.28266,-3.63008 -1.46875,-5.8125 0.0278,-0.18479 0.1296,-0.40491 0.15625,-0.59375 0.36394,-2.57844 0.49999,-5.56714 0.5,-9.46875 -10e-6,-1.44871 0.0405,-3.8627 0.1875,-7.03125 0.001,-0.0281 -0.001,-0.0342 0,-0.0625 0.17543,-3.31708 0.31249,-5.83999 0.3125,-7.8125 -10e-6,-1.66674 -0.10866,-3.67365 -1.65625,-6.09375 -1.54759,-2.4201 -5.25371,-4.31242 -7.875,-4.3125 -1.28568,5e-5 -2.85417,0.0803 -4.59375,0.875 a 7.9867557,7.9867557 0 0 0 -5.90625,-2.65625 l -7.75,0 a 7.9867557,7.9867557 0 0 0 -5.71875,2.4375 7.9867557,7.9867557 0 0 0 -5.6875,-2.4375 l -7.75,0 a 7.9867557,7.9867557 0 0 0 -5.09375,1.84375 7.9867557,7.9867557 0 0 0 -1.625,-0.625 c -2.1591,-0.57469 -4.26993,-0.99602 -6.3125,-1.28125 -0.0211,-0.003 -0.0414,0.003 -0.0625,0 -2.10106,-0.30396 -4.17064,-0.46871 -6.1875,-0.46875 -4.79264,4e-5 -9.62536,1.10451 -13.4375,4.28125 -1.44283,1.20238 -2.52825,2.73303 -3.4375,4.375 l -1.09375,-2.90625 a 7.9867557,7.9867557 0 0 0 -7.5,-5.21875 l -9.21875,0 a 7.9867557,7.9867557 0 0 0 -7.5,5.21875 l -1.78125,4.78125 c -0.99439,-2.51803 -2.5243,-4.85939 -4.75,-6.46875 -0.0119,-0.009 -0.0193,-0.0227 -0.0312,-0.0312 -4.0198,-2.88919 -8.49788,-3.49996 -13.34375,-3.5 l -11.84375,0 a 7.9867557,7.9867557 0 0 0 -4.96875,1.75 c -1.33485,-0.54418 -2.68398,-1.14069 -4.03125,-1.46875 -2.17905,-0.5305 -4.4173,-0.81246 -6.6875,-0.8125 z m 23.4375,17.34375 0,0.625 0,0.65625 c -0.0674,-0.26944 -0.1875,-0.6551 -0.1875,-0.65625 0,0.007 0.12446,-0.37259 0.1875,-0.625 z M 206.5625,640.5 c 0.0262,-0.0293 -0.48867,0.0313 0.5625,0.0312 0.741,10e-6 1.36015,0.0925 1.9375,0.28125 0.55055,0.18 1.30329,0.53171 2.21875,1.15625 a 7.9867557,7.9867557 0 0 0 0.9375,0.53125 7.9867557,7.9867557 0 0 0 -0.9375,0.53125 c -0.91541,0.62453 -1.66832,0.9763 -2.21875,1.15625 -0.57726,0.18872 -1.1966,0.28125 -1.9375,0.28125 -1.05113,0 -0.53635,0.0605 -0.5625,0.0312 -0.0278,-0.0311 -0.34376,-0.26777 -0.34375,-2 -1e-5,-1.75148 0.30252,-1.95387 0.34375,-2 z"
       transform="matrix(0.97499572,-0.22222362,0.22222362,0.97499572,0,0)" />
    <text
       xml:space="preserve"
       style="font-size:41.17705536px;font-style:normal;font-variant:normal;font-weight:bold;font-stretch:normal;text-align:start;line-height:100%;writing-mode:lr-tb;text-anchor:start;fill:#000000;fill-opacity:1;stroke:none;font-family:Vemana2000;-inkscape-font-specification:Vemana2000 Bold"
       x="188.18086"
       y="657.48877"
       id="text3595"
       sodipodi:linespacing="100%"
       transform="matrix(0.97499572,-0.22222362,0.22222362,0.97499572,0,0)"><tspan
         sodipodi:role="line"
         id="tspan3597"
         x="188.18086"
         y="657.48877">CRASH!</tspan></text>
  </g>
</svg>
